<?xml version="1.0"?>
<svg width="45" height="45" xmlns="http://www.w3.org/2000/svg" xmlns:svg="http://www.w3.org/2000/svg" version="1.1">

 <g class="layer">
  <title>Layer 1</title>
  <g fill="none" fill-rule="evenodd" id="svg_1" stroke="#000000" stroke-linecap="round" stroke-linejoin="round" stroke-miterlimit="4" stroke-width="1.5">
   <path d="m22.5,11.63l0,-5.63" fill="none" id="svg_2" stroke="#000000"/>
   <path d="m20,8l5,0" fill="none" id="svg_3" stroke="#000000"/>
   <path d="m22.5,25c0,0 4.5,-7.5 3,-10.5c0,0 -1,-2.5 -3,-2.5c-2,0 -3,2.5 -3,2.5c-1.5,3 3,10.5 3,10.5" fill="#ffffff" id="svg_4" stroke="#000000"/>
   <path d="m12.5,37c5.5,3.5 14.5,3.5 20,0l0,-7c0,0 9,-4.5 6,-10.5c-4,-6.5 -13.5,-3.5 -16,4l0,3.5l0,-3.5c-2.5,-7.5 -12,-10.5 -16,-4c-3,6 6,10.5 6,10.5l0,7" fill="#ffffff" id="svg_5" stroke="#000000"/>
   <path d="m12.5,30c5.5,-3 14.5,-3 20,0" fill="none" id="svg_6" stroke="#000000"/>
   <path d="m12.5,33.5c5.5,-3 14.5,-3 20,0" fill="none" id="svg_7" stroke="#000000"/>
   <path d="m12.5,37c5.5,-3 14.5,-3 20,0" fill="none" id="svg_8" stroke="#000000"/>
  </g>
  <line fill="none" fill-opacity="null" id="svg_9" stroke="#ff0000" stroke-dasharray="null" stroke-linecap="null" stroke-linejoin="null" stroke-width="5" transform="matrix(1, 0, 0, 1, 0, 0)" x1="-1" x2="-0.9" y1="-1.28" y2="46.82"/>
  <line fill="none" fill-opacity="null" id="svg_10" stroke="#ff0000" stroke-dasharray="null" stroke-linecap="null" stroke-linejoin="null" stroke-width="5" x1="-3.9" x2="45.8" y1="-1.18" y2="-1.28"/>
  <line fill="none" fill-opacity="null" id="svg_11" stroke="#ff0000" stroke-dasharray="null" stroke-linecap="null" stroke-linejoin="null" stroke-width="5" transform="matrix(1, 0, 0, 1, 0, 0)" x1="45.4" x2="45.3" y1="45.72" y2="-3.98"/>
  <line fill="none" fill-opacity="null" id="svg_12" stroke="#ff0000" stroke-dasharray="null" stroke-linecap="null" stroke-linejoin="null" stroke-width="5" transform="matrix(1, 0, 0, 1, 0, 0)" x1="-3.7" x2="50.3" y1="44.52" y2="44.22"/>
 </g>
</svg>